{
  "accessors": [
    {
      "bufferView": 2,
      "componentType": 5126,
      "count": 5962,
      "max": [
        94.09919738769531,
        148.75570678710938,
        184.80099487304688
      ],
      "min": [
        -94.09919738769531,
        -148.75570678710938,
        -7.65339994430542
      ],
      "type": "VEC3"
    },
    {
      "bufferView": 2,
      "byteOffset": 71544,
      "componentType": 5126,
      "count": 5962,
      "max": [
        1.0,
        0.9990402460098267,
        1.0
      ],
      "min": [
        -1.0,
        -0.9996567368507385,
        -1.0
      ],
      "type": "VEC3"
    },
    {
      "bufferView": 3,
      "componentType": 5126,
      "count": 5962,
      "max": [
        1.0,
        1.0,
        0.9999324083328247,
        1.0
      ],
      "min": [
        -1.0,
        -1.0,
        -0.9990435242652893,
        -1.0
      ],
      "type": "VEC4"
    },
    {
      "bufferView": 1,
      "componentType": 5126,
      "count": 5962,
      "max": [
        0.9926999807357788,
        0.9884999990463257
      ],
      "min": [
        0.005799999926239252,
        0.005799999926239252
      ],
      "type": "VEC2"
    },
    {
      "bufferView": 0,
      "componentType": 5125,
      "count": 10452,
      "type": "SCALAR"
    },
    {
      "bufferView": 2,
      "byteOffset": 143088,
      "componentType": 5126,
      "count": 3050,
      "max": [
        91.57640075683594,
        148.75570678710938,
        206.2873992919922
      ],
      "min": [
        -91.57640075683594,
        -143.0229034423828,
        -3.281599998474121
      ],
      "type": "VEC3"
    },
    {
      "bufferView": 2,
      "byteOffset": 179688,
      "componentType": 5126,
      "count": 3050,
      "max": [
        1.0,
        0.9998655319213867,
        0.9999994039535522
      ],
      "min": [
        -1.0,
        -1.0,
        -1.0
      ],
      "type": "VEC3"
    },
    {
      "bufferView": 3,
      "byteOffset": 95392,
      "componentType": 5126,
      "count": 3050,
      "max": [
        1.0,
        1.0,
        0.999748945236206,
        1.0
      ],
      "min": [
        -1.0,
        -0.9999321699142456,
        -0.9999257922172546,
        -1.0
      ],
      "type": "VEC4"
    },
    {
      "bufferView": 1,
      "byteOffset": 47696,
      "componentType": 5126,
      "count": 3050,
      "max": [
        0.9940999746322632,
        0.9941999912261963
      ],
      "min": [
        0.005799999926239252,
        0.005799999926239252
      ],
      "type": "VEC2"
    },
    {
      "bufferView": 0,
      "byteOffset": 41808,
      "componentType": 5125,
      "count": 11958,
      "type": "SCALAR"
    }
  ],
  "asset": {
    "extras": {
      "author": "Willy Decarpentrie (https://sketchfab.com/skudgee)",
      "license": "CC-BY-4.0 (http://creativecommons.org/licenses/by/4.0/)",
      "source": "https://sketchfab.com/3d-models/tank-9d28a36e12c24f94b852610677706552",
      "title": "Tank"
    },
    "generator": "Sketchfab-12.68.0",
    "version": "2.0"
  },
  "bufferViews": [
    {
      "buffer": 0,
      "byteLength": 89640,
      "name": "floatBufferViews",
      "target": 34963
    },
    {
      "buffer": 0,
      "byteLength": 72096,
      "byteOffset": 89640,
      "byteStride": 8,
      "name": "floatBufferViews",
      "target": 34962
    },
    {
      "buffer": 0,
      "byteLength": 216288,
      "byteOffset": 161736,
      "byteStride": 12,
      "name": "floatBufferViews",
      "target": 34962
    },
    {
      "buffer": 0,
      "byteLength": 144192,
      "byteOffset": 378024,
      "byteStride": 16,
      "name": "floatBufferViews",
      "target": 34962
    }
  ],
  "buffers": [
    {
      "byteLength": 522216,
      "uri": "scene.bin"
    }
  ],
  "images": [
    {
      "uri": "textures/Standard_baseColor.jpeg"
    },
    {
      "uri": "textures/Standard_normal.jpeg"
    }
  ],
  "materials": [
    {
      "doubleSided": true,
      "name": "Standard",
      "normalTexture": {
        "index": 1
      },
      "pbrMetallicRoughness": {
        "baseColorTexture": {
          "index": 0
        },
        "metallicFactor": 0.0,
        "roughnessFactor": 0.6
      }
    }
  ],
  "meshes": [
    {
      "name": "Object_0",
      "primitives": [
        {
          "attributes": {
            "NORMAL": 1,
            "POSITION": 0,
            "TANGENT": 2,
            "TEXCOORD_0": 3
          },
          "indices": 4,
          "material": 0,
          "mode": 4
        }
      ]
    },
    {
      "name": "Object_1",
      "primitives": [
        {
          "attributes": {
            "NORMAL": 6,
            "POSITION": 5,
            "TANGENT": 7,
            "TEXCOORD_0": 8
          },
          "indices": 9,
          "material": 0,
          "mode": 4
        }
      ]
    }
  ],
  "nodes": [
    {
      "children": [
        1
      ],
      "matrix": [
        1.0,
        0.0,
        0.0,
        0.0,
        0.0,
        2.220446049250313e-16,
        -1.0,
        0.0,
        0.0,
        1.0,
        2.220446049250313e-16,
        0.0,
        0.0,
        0.0,
        0.0,
        1.0
      ],
      "name": "Sketchfab_model"
    },
    {
      "children": [
        2,
        3
      ],
      "name": "Tank.obj.cleaner"
    },
    {
      "mesh": 0,
      "name": "Object_2"
    },
    {
      "mesh": 1,
      "name": "Object_3"
    }
  ],
  "samplers": [
    {
      "magFilter": 9729,
      "minFilter": 9987,
      "wrapS": 10497,
      "wrapT": 10497
    }
  ],
  "scene": 0,
  "scenes": [
    {
      "name": "Sketchfab_Scene",
      "nodes": [
        0
      ]
    }
  ],
  "textures": [
    {
      "sampler": 0,
      "source": 0
    },
    {
      "sampler": 0,
      "source": 1
    }
  ]
}
